<?xml version="1.0" encoding="UTF-8" standalone="no"?>
<svg
   version="1.1"
   width="150"
   height="150"
   style="clip-rule:evenodd;fill-rule:evenodd;image-rendering:optimizeQuality;shape-rendering:geometricPrecision;text-rendering:geometricPrecision"
   id="svg61"
   sodipodi:docname="ftp_client.svg"
   inkscape:version="1.4 (e7c3feb100, 2024-10-09)"
   xmlns:inkscape="http://www.inkscape.org/namespaces/inkscape"
   xmlns:sodipodi="http://sodipodi.sourceforge.net/DTD/sodipodi-0.dtd"
   xmlns="http://www.w3.org/2000/svg"
   xmlns:svg="http://www.w3.org/2000/svg">
  <defs
     id="defs61" />
  <sodipodi:namedview
     id="namedview61"
     pagecolor="#ffffff"
     bordercolor="#000000"
     borderopacity="0.25"
     inkscape:showpageshadow="2"
     inkscape:pageopacity="0.0"
     inkscape:pagecheckerboard="0"
     inkscape:deskcolor="#d1d1d1"
     inkscape:zoom="4.4718946"
     inkscape:cx="54.786622"
     inkscape:cy="91.795545"
     inkscape:window-width="2560"
     inkscape:window-height="1318"
     inkscape:window-x="0"
     inkscape:window-y="0"
     inkscape:window-maximized="1"
     inkscape:current-layer="svg61" />
  <circle
     style="clip-rule:evenodd;fill:#bdbdbc;fill-opacity:1;fill-rule:evenodd;stroke-width:0.661803;image-rendering:optimizeQuality;shape-rendering:geometricPrecision;text-rendering:geometricPrecision"
     id="path62-0"
     cx="75"
     cy="75"
     inkscape:label="path62"
     r="75" />
  <circle
     style="clip-rule:evenodd;fill:#16b1fb;fill-opacity:1;fill-rule:evenodd;stroke-width:0.661803;image-rendering:optimizeQuality;shape-rendering:geometricPrecision;text-rendering:geometricPrecision"
     id="path62"
     cx="75"
     cy="75"
     inkscape:label="path62"
     r="68" />
  <path
     style="clip-rule:evenodd;display:inline;opacity:1;fill-rule:evenodd;stroke-width:0.312926;image-rendering:optimizeQuality;shape-rendering:geometricPrecision;text-rendering:geometricPrecision"
     fill="#f8f9f9"
     d="m 116.92235,56.006005 c 14.46688,5.119045 21.22776,15.475139 20.28229,31.068274 -0.79195,3.852152 -2.14401,7.513501 -4.05646,10.983731 -1.69404,2.07217 -3.46204,4.112 -5.30459,6.11951 -2.15399,1.59641 -4.33823,3.1131 -6.55276,4.5504 -1.64161,0.2291 -3.20179,0.69983 -4.68052,1.4122 -1.87221,0.31382 -3.74441,0.62764 -5.61662,0.94146 -26.106735,0.15692 -52.213774,0.20932 -78.320811,0.15692 -1.770175,-0.2972 -3.538478,-0.66343 -5.304598,-1.09838 -1.525227,-0.71991 -2.981372,-1.55687 -4.368492,-2.51057 -2.197383,-1.73762 -3.861559,-3.88195 -4.99256,-6.43333 -0.119292,-1.45331 -0.53536,-2.8134 -1.248142,-4.07968 -0.38689,-2.621651 -0.334876,-5.236721 0.156018,-7.845515 0.532582,-0.755995 0.792632,-1.592642 0.780088,-2.510568 0.384365,-1.326834 0.956417,-2.582118 1.716192,-3.765851 2.128734,-2.198002 4.468998,-4.08093 7.020791,-5.648777 0.201918,-0.242898 0.30595,-0.556719 0.312035,-0.941464 -1.099551,-4.060842 -1.20355,-8.140517 -0.312035,-12.239016 1.975496,-5.333072 5.407881,-9.412745 10.297158,-12.239017 3.766888,-1.739194 7.719436,-2.314429 11.857332,-1.726015 1.476863,0.220302 2.932819,0.42962 4.368492,0.627644 0.670564,-2.133043 1.554558,-4.17288 2.652297,-6.119511 7.826776,-11.926139 18.695894,-16.162882 32.607664,-12.709748 10.974277,3.867842 17.318881,11.556457 19.034151,23.065842 3.27293,-0.13871 6.4972,0.17511 9.67308,0.941461 z"
     id="path13" />
  <text
     xml:space="preserve"
     style="font-style:normal;font-variant:normal;font-weight:normal;font-stretch:normal;font-size:41.7235px;font-family:'Arial Black';-inkscape-font-specification:'Arial Black, Normal';font-variant-ligatures:normal;font-variant-caps:normal;font-variant-numeric:normal;font-variant-east-asian:normal;text-align:start;writing-mode:lr-tb;direction:ltr;text-anchor:start;fill:#16b1fb;fill-opacity:1;stroke-width:0.312926"
     x="34.579391"
     y="97.706711"
     id="text63"
     transform="scale(0.99715054,1.0028576)"><tspan
       sodipodi:role="line"
       id="tspan63"
       x="34.579391"
       y="97.706711"
       style="stroke-width:0.312926">FTP</tspan></text>
</svg>
