<?xml version="1.0" encoding="UTF-8" standalone="no"?>
<!-- Created with Inkscape (http://www.inkscape.org/) -->

<svg
   version="1.1"
   id="svg1"
   width="200"
   height="200"
   viewBox="0 0 200 200"
   sodipodi:docname="serial_transceiver"
   inkscape:version="1.4 (e7c3feb100, 2024-10-09)"
   xmlns:inkscape="http://www.inkscape.org/namespaces/inkscape"
   xmlns:sodipodi="http://sodipodi.sourceforge.net/DTD/sodipodi-0.dtd"
   xmlns="http://www.w3.org/2000/svg"
   xmlns:svg="http://www.w3.org/2000/svg">
  <sodipodi:namedview
     id="namedview1"
     pagecolor="#ffffff"
     bordercolor="#000000"
     borderopacity="0.25"
     inkscape:showpageshadow="2"
     inkscape:pageopacity="0.0"
     inkscape:pagecheckerboard="0"
     inkscape:deskcolor="#d1d1d1"
     showgrid="false"
     inkscape:zoom="2.6825"
     inkscape:cx="121.52842"
     inkscape:cy="85.55452"
     inkscape:window-width="2560"
     inkscape:window-height="1320"
     inkscape:window-x="0"
     inkscape:window-y="0"
     inkscape:window-maximized="1"
     inkscape:current-layer="g1" />
  <defs
     id="defs1" />
  <g
     inkscape:groupmode="layer"
     inkscape:label="Image"
     id="g1">
    <path
       style="display:inline;fill:#000000"
       d="m 119.92299,194.33333 c -1.56615,-1.65 -11.84661,-13.92682 -22.845459,-27.28183 l -19.997905,-24.28183 -13.346353,6.69751 c -7.340495,3.68364 -13.47913,6.51046 -13.641411,6.28184 C 49.92958,155.52039 47.20611,145.13333 44.039706,132.66667 40.873301,120.2 37.91902,109.02341 37.474637,107.8298 37.030253,106.63619 28.885797,99.302104 19.375846,91.531833 9.865895,83.761562 1.6494035,76.226468 1.1169763,74.78718 -1.2688348,68.337719 0.97510879,67.362255 97.996503,32.672706 186.88137,0.89233572 191.05835,-0.4606584 194.43514,1.4346795 202.1565,5.7685703 202.89862,3.1425051 166.19304,101.37183 142.59523,164.5229 131.19895,193.38597 129.22496,195 c -3.78237,3.09264 -5.87612,2.94258 -9.30197,-0.66667 z M 159.21032,99.599179 C 177.24464,51.345395 192,10.995395 192,9.9325127 192,8.8696307 191.07069,8 189.93486,8 188.09412,8 9.3249261,71.563963 8.3093068,72.579582 8.0821409,72.806748 15.34482,79.042591 24.448595,86.437012 L 41.000911,99.881413 97.500456,67.159192 C 128.57521,49.16197 156.1,33.203566 158.66667,31.696071 161.23333,30.188576 142.37661,50.000184 116.76283,75.721867 81.362141,111.2717 70.518496,122.90967 71.552204,124.24428 c 1.951982,2.52019 44.100616,54.14045 49.003356,60.01537 2.26111,2.70947 4.50575,4.50947 4.98809,4 0.48235,-0.50947 15.63235,-40.40669 33.66667,-88.660471 z m -91.158563,41.544861 5.081502,-2.85597 -2.778665,-3.75834 c -1.528267,-2.0671 -3.227087,-3.48121 -3.775157,-3.14249 C 65.317323,132.16727 61.239431,144 62.232725,144 c 0.405641,0 3.024206,-1.28518 5.819032,-2.85596 z m -9.421776,-9.81071 c 4.140042,-10.52678 4.574177,-11.04697 33.104506,-39.666663 15.900193,-15.95 28.507173,-29 28.015493,-29 -0.73995,0 -74.324377,42.197013 -75.43838,43.260163 -0.195286,0.18637 1.199004,6.27908 3.098422,13.53935 1.899417,7.26027 4.048632,15.51105 4.776032,18.33508 0.7274,2.82402 1.530969,4.92402 1.785708,4.66666 0.25474,-0.25735 2.350938,-5.26792 4.658219,-11.13459 z"
       id="path1" />
    <path
       style="display:inline;fill:#58aef9;fill-opacity:1;stroke-width:0.140896"
       d="m 122.96081,185.92731 c -4.32672,-4.46331 -49.675222,-59.79882 -50.551013,-61.68375 -0.8411,-1.81026 1.141834,-3.94974 47.259853,-50.990997 34.56758,-35.25959 39.82553,-40.815481 39.20956,-41.431444 -0.35226,-0.352258 -5.53756,2.569716 -41.43099,23.346814 C 83.089368,75.056731 51.632373,93.159795 44.634774,97.071061 l -3.82748,2.139347 -6.983331,-5.689909 C 21.662673,83.611668 12.350341,75.798669 10.86273,74.256149 9.1577039,72.488186 8.9616003,72.679411 14.5948,70.616917 37.147152,62.359776 60.544265,53.946255 99.534017,40.073076 161.14847,18.149664 188.70011,8.5740913 190.16554,8.5740913 c 1.28205,0 1.47211,0.8734488 0.71856,3.3022217 -1.42835,4.603713 -21.96901,60.627624 -34.80821,94.938137 -2.45747,6.56715 -6.85172,18.30993 -9.76501,26.09506 -13.58222,36.29558 -20.78105,54.97493 -21.18677,54.97493 -0.14634,0 -1.11983,-0.88071 -2.1633,-1.95713 z"
       id="path6" />
    <path
       style="display:inline;fill:#58aef9;fill-opacity:1;stroke-width:0.140896"
       d="m 62.441752,142.86011 c 0,-1.72192 3.692436,-11.26866 4.356863,-11.2646 0.582591,0.004 2.286978,1.6957 4.167964,4.13801 l 1.896397,2.46232 -3.439876,1.88629 c -7.004595,3.84105 -6.981348,3.83179 -6.981348,2.77798 z"
       id="path7" />
  </g>
</svg>
