<?xml version="1.0" encoding="UTF-8" standalone="no"?>
<!-- Created with Inkscape (http://www.inkscape.org/) -->

<svg
   version="1.1"
   id="svg1"
   width="48"
   height="39.68"
   viewBox="0 0 48 39.68"
   sodipodi:docname="window.svg"
   inkscape:version="1.4 (e7c3feb100, 2024-10-09)"
   xmlns:inkscape="http://www.inkscape.org/namespaces/inkscape"
   xmlns:sodipodi="http://sodipodi.sourceforge.net/DTD/sodipodi-0.dtd"
   xmlns="http://www.w3.org/2000/svg"
   xmlns:svg="http://www.w3.org/2000/svg">
  <defs
     id="defs1" />
  <sodipodi:namedview
     id="namedview1"
     pagecolor="#ffffff"
     bordercolor="#000000"
     borderopacity="0.25"
     inkscape:showpageshadow="2"
     inkscape:pageopacity="0.0"
     inkscape:pagecheckerboard="0"
     inkscape:deskcolor="#d1d1d1"
     inkscape:zoom="13.520665"
     inkscape:cx="18.860019"
     inkscape:cy="21.078845"
     inkscape:window-width="2560"
     inkscape:window-height="1320"
     inkscape:window-x="0"
     inkscape:window-y="0"
     inkscape:window-maximized="1"
     inkscape:current-layer="g1" />
  <g
     inkscape:groupmode="layer"
     inkscape:label="Image"
     id="g1">
    <path
       style="fill:#000000"
       d="M 6.2960166,39.14935 C 6.1772075,39.030541 6.08,38.461311 6.08,37.884394 V 36.835455 L 3.44,37.750358 C 1.5630047,38.400839 0.68439323,38.569362 0.4,38.333448 -0.14138464,37.884353 -0.18745068,1.9154507 0.35266705,1.375333 0.60955645,1.1184436 1.4303421,1.2677342 3.3749175,1.9250425 L 6.0445009,2.827419 6.1422505,1.6537095 6.24,0.48 H 24 41.76 l 0.09775,1.1737095 0.09775,1.1737095 2.669583,-0.9023765 c 1.944576,-0.6573083 2.765362,-0.8065989 3.022251,-0.5497095 0.540118,0.5401177 0.494052,36.50902 -0.04733,36.958115 -0.284361,0.235887 -1.158044,0.06911 -3.02211,-0.576891 L 41.955781,36.847853 41.85789,38.023927 41.76,39.2 24.136017,39.282684 C 14.442826,39.328159 6.4148257,39.268159 6.2960166,39.14935 Z M 40.32,37.178439 c 0,-0.808901 -0.175555,-0.956899 -1.708125,-1.44 C 37.127661,35.270582 35.193211,35.2 23.854823,35.2 12.28505,35.2 10.62873,35.262924 9.2429484,35.75511 7.8829819,36.238128 7.68,36.425142 7.68,37.19511 V 38.08 H 24 40.32 Z M 10.24,19.875643 10.24,5.8873019 5.92,4.3956274 1.6,2.903953 l 0,16.924103 0,16.924104 4.32,-1.444088 4.32,-1.444088 z m -5.8603297,8.164465 c -0.2124315,-0.553588 2.1571892,-2.911066 2.6314444,-2.61796 0.5980478,0.369614 0.3882059,0.974194 -0.706349,2.035079 -1.145766,1.11052 -1.6625745,1.266999 -1.9250954,0.582881 z M 3.3403558,15.008215 C 3.0554804,14.547277 6.6884778,10.88 7.4299829,10.88 c 1.0427638,0 0.5992995,1.112944 -1.1200454,2.810931 -1.6536013,1.633061 -2.5332584,2.02327 -2.9695817,1.317284 z M 46.4,19.856188 V 2.9123754 l -4.32,1.4713937 -4.32,1.4713938 v 13.9990511 13.99905 l 4.08,1.429613 c 2.244,0.786288 4.188,1.449303 4.32,1.473368 0.132,0.02407 0.24,-7.58096 0.24,-16.900057 z m -7.050882,6.2107 c -0.344419,-0.414999 -0.239301,-0.668452 0.663591,-1.6 C 40.60277,23.8581 41.345299,23.36 41.662773,23.36 c 0.953893,0 0.669623,1.132577 -0.553908,2.206851 -1.318173,1.157371 -1.234047,1.133467 -1.759747,0.500037 z m 1.112435,-8.816736 C 40.217825,16.855791 42.797513,14.08 43.407741,14.08 c 0.940405,0 0.729452,0.799014 -0.557035,2.109848 -1.402599,1.429144 -1.997913,1.693344 -2.389153,1.060304 z M 36.16,19.84 V 6.08 H 24 11.84 V 19.84 33.6 H 24 36.16 Z M 38.8,3.9383686 c 1.323747,-0.4744561 1.52,-0.6609632 1.52,-1.4445154 l 0,-0.8997184 L 24.08,1.6770674 7.84,1.76 l -0.0981,0.8473001 c -0.08578,0.7408893 0.074973,0.9085164 1.28,1.3347369 C 10.167391,4.3471993 12.668537,4.434005 23.84,4.4563196 35.732685,4.4800748 37.454994,4.4204443 38.8,3.9383686 Z"
       id="path2" />
    <path
       style="fill:#4aadc2;fill-opacity:1;stroke-width:0.0279537"
       d="M 11.907698,19.85849 V 6.1387512 h 12.0926 12.092601 V 19.85849 33.57823 h -12.092601 -12.0926 z"
       id="path3" />
    <path
       style="fill:#a6eefd;fill-opacity:1;stroke-width:0.0279537"
       d="M 1.6271389,19.831853 V 2.9632937 l 2.0524138,0.7063622 c 4.6108039,1.5868622 6.2746935,2.1619474 6.3976143,2.2111891 0.122627,0.049124 0.129431,0.7853229 0.129431,14.004539 v 13.95269 l -4.1972783,1.397044 c -2.3085033,0.768375 -4.2388817,1.412401 -4.2897298,1.43117 -0.07379,0.02724 -0.092451,-3.370696 -0.092451,-16.834435 z m 3.8101667,8.41289 C 5.9517981,27.918462 7.0423508,26.792199 7.2408621,26.38213 7.5161019,25.813561 7.2873667,25.297867 6.8029142,25.394757 6.0797022,25.5394 4.3636906,27.31682 4.3636906,27.92127 c 0,0.577023 0.4567917,0.714652 1.073615,0.323473 z M 4.5552698,15.164019 c 0.5114292,-0.257229 1.8019031,-1.382185 2.4267049,-2.11545 0.666071,-0.7817 0.9442599,-1.237801 0.9871708,-1.618505 0.048674,-0.431835 -0.055121,-0.557818 -0.4595753,-0.557818 -0.2563104,0 -0.4101924,0.0686 -0.859984,0.38337 -1.0653268,0.745533 -3.2067464,3.04219 -3.3374359,3.579376 -0.064349,0.2645 0.2479419,0.542315 0.6144522,0.546617 0.1053685,0.0012 0.3882688,-0.09668 0.6286673,-0.21759 z"
       id="path4" />
    <path
       style="fill:#a6eefd;fill-opacity:1;stroke-width:0.0279537"
       d="m 42.083728,35.320529 c -2.13562,-0.746295 -3.974471,-1.392868 -4.086337,-1.436828 l -0.203393,-0.07993 0.0011,-13.961942 0.0011,-13.9619428 4.270187,-1.4506246 4.270186,-1.4506247 0.02176,10.3629081 c 0.01976,9.409248 -0.07993,21.851915 -0.183612,22.917764 -0.02383,0.244947 -0.07669,0.423758 -0.124662,0.421696 -0.04581,-0.002 -1.830618,-0.614182 -3.966238,-1.360478 z m -1.689251,-9.077707 c 0.656446,-0.513816 1.504905,-1.40816 1.676001,-1.766639 0.187944,-0.393777 0.212164,-0.896198 0.0497,-1.03103 -0.371859,-0.308615 -1.16728,0.04645 -2.046985,0.913751 -0.650167,0.640998 -0.947901,1.051273 -0.947901,1.306198 0,0.241401 0.538026,0.886846 0.739253,0.886846 0.07425,0 0.312715,-0.139107 0.52993,-0.309126 z m 1.14683,-8.860667 c 0.493986,-0.283317 1.797213,-1.579096 2.173126,-2.160706 0.175844,-0.272065 0.292277,-0.541079 0.292277,-0.675293 0,-0.555036 -0.571271,-0.666547 -1.159218,-0.226278 -0.792738,0.593622 -1.998436,1.918874 -2.320991,2.551135 -0.112746,0.221 -0.129651,0.324204 -0.07104,0.433712 0.190096,0.355198 0.55604,0.381293 1.08585,0.07743 z"
       id="path5" />
    <path
       style="fill:#fcda9d;fill-opacity:1;stroke-width:0.0279537"
       d="m 7.7095982,37.346146 c 0.042949,-0.753254 0.1358701,-0.915934 0.6835409,-1.196697 0.9277101,-0.475589 2.0286569,-0.69647 3.9564639,-0.793778 2.333309,-0.117776 13.420036,-0.167876 18.603016,-0.08407 5.895202,0.09533 6.500554,0.141635 7.913812,0.605382 1.277677,0.419257 1.430172,0.589208 1.438062,1.602678 l 0.0042,0.536216 H 23.990039 7.6714117 Z"
       id="path6" />
    <path
       style="fill:#fcda9d;fill-opacity:1;stroke-width:0.0279537"
       d="M 15.53178,4.3656553 C 10.412619,4.2795055 9.443614,4.174917 8.274167,3.5823134 7.7897277,3.3368294 7.7412227,3.2196097 7.8026948,2.442928 L 7.8538506,1.7965904 17.887037,1.7486828 c 5.518253,-0.026349 12.820587,-0.06931 16.227409,-0.095468 l 6.194222,-0.04756 -4.13e-4,0.5099779 c -8.18e-4,1.0113017 -0.18346,1.266467 -1.182196,1.6516204 C 38.349251,4.0668216 37.746633,4.188691 36.534047,4.2914434 35.320357,4.3942893 20.37194,4.4471099 15.53178,4.3656553 Z"
       id="path7" />
  </g>
</svg>
